<?xml version="1.0" encoding="UTF-8"?>
<svg xmlns="http://www.w3.org/2000/svg" width="1024" height="1024" viewBox="0 0 1024 1024">
  <defs>
    <linearGradient id="background" x1="160" y1="120" x2="864" y2="904" gradientUnits="userSpaceOnUse">
      <stop offset="0" stop-color="#24566a"/>
      <stop offset="1" stop-color="#102f3e"/>
    </linearGradient>
    <filter id="shadow" x="-20%" y="-20%" width="140%" height="140%">
      <feDropShadow dx="0" dy="22" stdDeviation="24" flood-color="#071820" flood-opacity="0.34"/>
    </filter>
  </defs>

  <rect x="64" y="64" width="896" height="896" rx="196" fill="url(#background)"/>

  <g filter="url(#shadow)">
    <rect x="176" y="164" width="672" height="696" rx="74" fill="#f8fbfc"/>
  </g>

  <g stroke="#d9e5e9" stroke-width="14" stroke-linecap="round">
    <path d="M264 320H776"/>
    <path d="M264 456H776"/>
    <path d="M264 592H776"/>
    <path d="M400 240V760"/>
    <path d="M536 240V760"/>
    <path d="M672 240V760"/>
  </g>

  <g stroke="#31505e" stroke-width="28" stroke-linecap="round" stroke-linejoin="round">
    <path d="M264 240V760H776" fill="none"/>
  </g>

  <path d="M304 674L414 590L520 620L628 430L744 304"
        fill="none" stroke="#2f80ed" stroke-width="38"
        stroke-linecap="round" stroke-linejoin="round"/>

  <g fill="#f8fbfc" stroke="#2f80ed" stroke-width="28">
    <circle cx="304" cy="674" r="24"/>
    <circle cx="414" cy="590" r="24"/>
    <circle cx="520" cy="620" r="24"/>
    <circle cx="744" cy="304" r="24"/>
  </g>

  <g transform="translate(628 430)">
    <circle r="62" fill="#f8fbfc" stroke="#e4483d" stroke-width="28"/>
    <circle r="20" fill="#e4483d"/>
    <path d="M-96 0H-54M54 0H96M0-96V-54M0 54V96"
          fill="none" stroke="#e4483d" stroke-width="24" stroke-linecap="round"/>
  </g>
</svg>
